<mxfile host="Electron" modified="2023-06-12T22:56:41.941Z" agent="Mozilla/5.0 (Macintosh; Intel Mac OS X 10_15_7) AppleWebKit/537.36 (KHTML, like Gecko) draw.io/21.2.8 Chrome/112.0.5615.165 Electron/24.2.0 Safari/537.36" etag="B64wrsEUG2wVNli92cSk" version="21.2.8" type="device">
  <diagram name="Page-1" id="SS-cA6jWi7KCO59xbV5o">
    <mxGraphModel dx="1114" dy="894" grid="1" gridSize="10" guides="1" tooltips="1" connect="1" arrows="1" fold="1" page="1" pageScale="1" pageWidth="850" pageHeight="1100" math="0" shadow="0">
      <root>
        <mxCell id="0" />
        <mxCell id="1" parent="0" />
        <mxCell id="iJ6I81X2uFAIu_RXYd5V-1" value="" style="rounded=1;whiteSpace=wrap;html=1;arcSize=5;fontFamily=SF Mono;fillColor=#fff2cc;strokeColor=#d6b656;" parent="1" vertex="1">
          <mxGeometry x="320" y="190" width="40" height="30" as="geometry" />
        </mxCell>
        <mxCell id="iJ6I81X2uFAIu_RXYd5V-2" value="var i" style="text;html=1;strokeColor=none;fillColor=none;align=center;verticalAlign=middle;whiteSpace=wrap;rounded=0;fontFamily=SF Mono;" parent="1" vertex="1">
          <mxGeometry x="170" y="190" width="60" height="30" as="geometry" />
        </mxCell>
        <mxCell id="iJ6I81X2uFAIu_RXYd5V-3" value="" style="endArrow=classic;html=1;rounded=0;exitX=1;exitY=0.5;exitDx=0;exitDy=0;entryX=0;entryY=0.5;entryDx=0;entryDy=0;" parent="1" source="iJ6I81X2uFAIu_RXYd5V-2" target="iJ6I81X2uFAIu_RXYd5V-1" edge="1">
          <mxGeometry width="50" height="50" relative="1" as="geometry">
            <mxPoint x="400" y="480" as="sourcePoint" />
            <mxPoint x="450" y="430" as="targetPoint" />
          </mxGeometry>
        </mxCell>
        <mxCell id="iJ6I81X2uFAIu_RXYd5V-4" value="" style="rounded=1;whiteSpace=wrap;html=1;arcSize=5;fontFamily=SF Mono;dashed=1;fillColor=#f5f5f5;fontColor=#333333;strokeColor=#666666;" parent="1" vertex="1">
          <mxGeometry x="400" y="240" width="160" height="100" as="geometry" />
        </mxCell>
        <mxCell id="iJ6I81X2uFAIu_RXYd5V-5" value="closure" style="text;html=1;strokeColor=none;fillColor=none;align=center;verticalAlign=middle;whiteSpace=wrap;rounded=0;fontFamily=SF Mono;" parent="1" vertex="1">
          <mxGeometry x="400" y="240" width="70" height="30" as="geometry" />
        </mxCell>
        <mxCell id="iJ6I81X2uFAIu_RXYd5V-6" value="i" style="text;html=1;strokeColor=none;fillColor=none;align=center;verticalAlign=middle;whiteSpace=wrap;rounded=0;fontFamily=SF Mono;" parent="1" vertex="1">
          <mxGeometry x="420" y="290" width="30" height="30" as="geometry" />
        </mxCell>
        <mxCell id="iJ6I81X2uFAIu_RXYd5V-7" value="" style="endArrow=classic;html=1;rounded=0;exitX=0;exitY=0.5;exitDx=0;exitDy=0;entryX=0.5;entryY=1;entryDx=0;entryDy=0;" parent="1" source="iJ6I81X2uFAIu_RXYd5V-6" target="iJ6I81X2uFAIu_RXYd5V-1" edge="1">
          <mxGeometry width="50" height="50" relative="1" as="geometry">
            <mxPoint x="400" y="470" as="sourcePoint" />
            <mxPoint x="450" y="420" as="targetPoint" />
            <Array as="points">
              <mxPoint x="340" y="305" />
            </Array>
          </mxGeometry>
        </mxCell>
        <mxCell id="iJ6I81X2uFAIu_RXYd5V-8" value="" style="rounded=1;whiteSpace=wrap;html=1;arcSize=5;fontFamily=SF Mono;dashed=1;fillColor=#f5f5f5;fontColor=#333333;strokeColor=#666666;" parent="1" vertex="1">
          <mxGeometry x="400" y="390" width="160" height="100" as="geometry" />
        </mxCell>
        <mxCell id="iJ6I81X2uFAIu_RXYd5V-9" value="closure&#39;" style="text;html=1;strokeColor=none;fillColor=none;align=center;verticalAlign=middle;whiteSpace=wrap;rounded=0;fontFamily=SF Mono;" parent="1" vertex="1">
          <mxGeometry x="400" y="390" width="70" height="30" as="geometry" />
        </mxCell>
        <mxCell id="iJ6I81X2uFAIu_RXYd5V-10" value="i" style="text;html=1;strokeColor=none;fillColor=none;align=center;verticalAlign=middle;whiteSpace=wrap;rounded=0;fontFamily=SF Mono;" parent="1" vertex="1">
          <mxGeometry x="420" y="440" width="30" height="30" as="geometry" />
        </mxCell>
        <mxCell id="iJ6I81X2uFAIu_RXYd5V-11" value="" style="endArrow=classic;html=1;rounded=0;exitX=-0.2;exitY=0.4;exitDx=0;exitDy=0;entryX=0.5;entryY=1;entryDx=0;entryDy=0;exitPerimeter=0;" parent="1" source="iJ6I81X2uFAIu_RXYd5V-10" target="iJ6I81X2uFAIu_RXYd5V-1" edge="1">
          <mxGeometry width="50" height="50" relative="1" as="geometry">
            <mxPoint x="430" y="315" as="sourcePoint" />
            <mxPoint x="340" y="230" as="targetPoint" />
            <Array as="points">
              <mxPoint x="340" y="452" />
            </Array>
          </mxGeometry>
        </mxCell>
      </root>
    </mxGraphModel>
  </diagram>
</mxfile>
